<svg xmlns="http://www.w3.org/2000/svg" width="64" height="64" enable-background="new 0 0 64 64" viewBox="0 0 64 64" id="female-taxi-driver"><polygon fill="#656D78" points="45.52 6.01 45.51 6 31.51 2 31.49 2 17.49 6 13.51 12 16.49 18.01 16.51 18.01 46.51 18.01 49.49 12"></polygon><path fill="#545C66" d="M51.5,52v10h-17l6-8l-2-2l3-4l-2-2h6C48.82,46,51.5,48.69,51.5,52z"></path><path fill="#434A54" d="M45.5,46h-4.004c3.32,0,6,2.69,6,6v10H51.5V52C51.5,48.69,48.82,46,45.5,46z"></path><polygon fill="#E6E9ED" points="36.36 48.12 32.5 62 30.5 62 26.64 48.12 27.06 48 31.5 46 35.94 48"></polygon><path fill="#FFCE54" d="M52.5,33.99v6c0-3.311-2.68-6-6-6h-1.25c0.8-1.83,1.24-3.86,1.24-5.99v-5.73h0.01v5.721
			C49.82,27.99,52.5,30.68,52.5,33.99z"></path><polygon fill="#545C66" points="46.5 22.01 16.51 22.01 16.51 18.01 46.51 18.01 46.51 22.01"></polygon><path fill="#F5F7FA" d="M25.5,44v-2.25c1.84,0.81,3.86,1.25,5.99,1.25c2.14,0,4.17-0.45,6.01-1.25V44l-1.14,4.12L35.94,48l-4.44-2
			l-4.44,2l-0.42,0.12L25.5,44z"></path><path fill="#545C66" d="M22.5,54l6,8h-17V52c0-3.31,2.68-6,6-6h6l-2,2l3,4L22.5,54z"></path><polygon fill="#656D78" points="39.5 46 41.5 48 38.5 52 40.5 54 34.5 62 32.5 62 36.36 48.12 37.5 44"></polygon><path fill="#656D78" d="M46.5,22.01v0.04c-0.17,0.44-1.87,3.96-15.01,3.96c-12.16,0-14.5-3.01-14.9-3.81
			c-0.06-0.12-0.08-0.19-0.08-0.19H46.5z"></path><rect width="3" height="3" x="23.99" y="11" fill="#FFCE54"></rect><rect width="3" height="3" x="35.99" y="11" fill="#FFCE54"></rect><rect width="3" height="3" x="26.99" y="8" fill="#FFCE54"></rect><rect width="3" height="3" x="29.99" y="11" fill="#FFCE54"></rect><rect width="3" height="3" x="32.99" y="8" fill="#FFCE54"></rect><path fill="#EAC6BB" d="M37.5,41.75c-1.84,0.8-3.87,1.25-6.01,1.25c-2.13,0-4.15-0.44-5.99-1.25c-5.3-2.3-9.01-7.59-9.01-13.75
			v-5.74l0.1-0.06c0.4,0.8,2.74,3.81,14.9,3.81c13.14,0,14.84-3.52,15.01-3.96v0.22h-0.01V28c0,2.13-0.44,4.16-1.24,5.99
			C43.74,37.45,40.96,40.24,37.5,41.75z"></path><path fill="#D3B1A9" d="M42.486,24.715V28c0,2.13-0.44,4.16-1.24,5.99c-1.51,3.46-4.29,6.25-7.75,7.76
				c-1.255,0.546-2.604,0.913-4.01,1.102C30.144,42.939,30.809,43,31.49,43c2.14,0,4.17-0.45,6.01-1.25
				c3.46-1.51,6.24-4.3,7.75-7.76c0.8-1.83,1.24-3.86,1.24-5.99v-5.73h0.01v-0.22C46.398,22.312,45.756,23.663,42.486,24.715z"></path><polygon fill="#656D78" points="25.5 44 26.64 48.12 30.5 62 28.5 62 22.5 54 24.5 52 21.5 48 23.5 46"></polygon><path d="M11.5 53.002c-.553 0-1-.447-1-1 0-3.861 3.141-7.002 7.002-7.002.553 0 1 .447 1 1s-.447 1-1 1c-2.758 0-5.002 2.244-5.002 5.002C12.5 52.555 12.053 53.002 11.5 53.002zM51.5 53.002c-.553 0-1-.447-1-1 0-2.757-2.243-5-5-5-.553 0-1-.447-1-1s.447-1 1-1c3.859 0 7 3.141 7 7C52.5 52.555 52.053 53.002 51.5 53.002z"></path><path d="M23.499 47.002L23.499 47.002 17.502 47c-.553 0-1-.448-1-1 0-.553.448-1 1-1l0 0 5.997.002c.553 0 1 .448 1 1C24.499 46.555 24.051 47.002 23.499 47.002zM45.5 47.002L45.5 47.002 39.501 47c-.553 0-1-.448-1-1 0-.553.448-1 1-1l0 0 5.999.002c.553 0 1 .448 1 1C46.5 46.555 46.052 47.002 45.5 47.002zM11.501 62.998c-.552 0-1-.447-1-1L10.5 52.002c0-.552.447-1 1-1 .552 0 1 .447 1 1l.001 9.996C12.501 62.55 12.054 62.998 11.501 62.998zM51.5 62.998c-.553 0-1-.447-1-1v-9.996c0-.553.447-1 1-1s1 .447 1 1v9.996C52.5 62.551 52.053 62.998 51.5 62.998zM25.5 45c-.553 0-1-.447-1-1v-2.25c0-.553.447-1 1-1s1 .447 1 1V44C26.5 44.553 26.053 45 25.5 45zM37.5 45c-.553 0-1-.447-1-1v-2.252c0-.553.447-1 1-1s1 .447 1 1V44C38.5 44.553 38.053 45 37.5 45zM31.53 51c-.553 0-1.005-.447-1.005-1s.442-1 .994-1h.011c.552 0 1 .447 1 1S32.082 51 31.53 51zM31.53 55c-.553 0-1.005-.447-1.005-1s.442-1 .994-1h.011c.552 0 1 .447 1 1S32.082 55 31.53 55zM26.659 49.182c-.382 0-.746-.219-.913-.589-.227-.504-.002-1.096.501-1.323l4.842-2.182c.508-.226 1.096-.002 1.323.501.227.504.002 1.096-.501 1.323l-4.842 2.182C26.936 49.153 26.796 49.182 26.659 49.182z"></path><path d="M36.337 49.178c-.137 0-.276-.028-.409-.088l-4.838-2.178c-.504-.227-.729-.819-.502-1.322.228-.504.819-.727 1.322-.502l4.838 2.178c.504.227.729.819.502 1.322C37.083 48.959 36.719 49.178 36.337 49.178zM21.5 49.002c-.256 0-.512-.098-.707-.293-.391-.391-.391-1.023 0-1.414l4-4.002c.391-.391 1.023-.391 1.414 0s.391 1.023 0 1.414l-4 4.002C22.012 48.904 21.756 49.002 21.5 49.002z"></path><path d="M24.501,53c-0.304,0-0.604-0.138-0.801-0.399l-3-3.998c-0.331-0.442-0.242-1.069,0.199-1.4
					c0.443-0.33,1.069-0.242,1.4,0.199l3,3.998c0.331,0.442,0.242,1.069-0.199,1.4C24.92,52.935,24.71,53,24.501,53z"></path><path d="M22.5,55c-0.256,0-0.512-0.098-0.707-0.293c-0.391-0.391-0.391-1.023,0-1.414l2-2c0.391-0.391,1.023-0.391,1.414,0
					s0.391,1.023,0,1.414l-2,2C23.012,54.902,22.756,55,22.5,55z"></path><path d="M28.501,63c-0.305,0-0.604-0.138-0.801-0.4l-6-8c-0.332-0.441-0.242-1.068,0.2-1.399c0.44-0.332,1.067-0.242,1.399,0.2
					l6,8c0.332,0.441,0.242,1.068-0.2,1.399C28.92,62.935,28.71,63,28.501,63z"></path><path d="M30.499 63c-.438 0-.84-.29-.963-.732l-5-18c-.147-.532.164-1.083.696-1.231.533-.146 1.084.164 1.231.696l5 18c.147.532-.164 1.083-.696 1.231C30.678 62.988 30.588 63 30.499 63zM41.5 49.002c-.256 0-.512-.098-.707-.293l-4-4.002c-.391-.391-.391-1.023 0-1.414s1.023-.391 1.414 0l4 4.002c.391.391.391 1.023 0 1.414C42.012 48.904 41.756 49.002 41.5 49.002z"></path><path d="M38.499,53c-0.209,0-0.419-0.065-0.6-0.2c-0.441-0.331-0.53-0.958-0.199-1.4l3-3.998c0.331-0.441,0.957-0.529,1.4-0.199
					c0.441,0.331,0.53,0.958,0.199,1.4l-3,3.998C39.104,52.862,38.803,53,38.499,53z"></path><path d="M40.5,55c-0.256,0-0.512-0.098-0.707-0.293l-2-2c-0.391-0.391-0.391-1.023,0-1.414s1.023-0.391,1.414,0l2,2
					c0.391,0.391,0.391,1.023,0,1.414C41.012,54.902,40.756,55,40.5,55z"></path><path d="M34.499,63c-0.209,0-0.419-0.065-0.599-0.2c-0.442-0.331-0.532-0.958-0.2-1.399l6-8c0.331-0.441,0.958-0.531,1.399-0.2
					c0.442,0.331,0.532,0.958,0.2,1.399l-6,8C35.104,62.862,34.804,63,34.499,63z"></path><path d="M32.501,63c-0.089,0-0.179-0.012-0.269-0.036c-0.532-0.148-0.844-0.699-0.696-1.231l5-18
					c0.148-0.532,0.699-0.842,1.231-0.696c0.532,0.148,0.844,0.699,0.696,1.231l-5,18C33.341,62.71,32.938,63,32.501,63z"></path><path d="M31.492,44c-8.822,0-16-7.178-16-16c0-0.553,0.447-1,1-1s1,0.447,1,1c0,7.72,6.28,14,14,14s14-6.28,14-14
				c0-0.553,0.447-1,1-1s1,0.447,1,1C47.492,36.822,40.314,44,31.492,44z"></path><path d="M16.492 29c-.553 0-1-.447-1-1v-5.74c0-.553.447-1 1-1s1 .447 1 1V28C17.492 28.553 17.045 29 16.492 29zM46.492 29c-.553 0-1-.447-1-1v-5.734c0-.553.447-1 1-1s1 .447 1 1V28C47.492 28.553 47.045 29 46.492 29z"></path><path d="M31.492,27.01c-14.089,0-15.763-3.973-15.955-4.769c-0.13-0.537,0.2-1.077,0.736-1.207
				c0.519-0.127,1.041,0.178,1.193,0.684c0.071,0.158,1.664,3.292,14.025,3.292c12.457,0,14.036-3.214,14.044-3.246
				c0.135-0.535,0.677-0.86,1.213-0.729c0.536,0.134,0.861,0.677,0.729,1.213C47.278,23.043,45.575,27.01,31.492,27.01z"></path><path d="M46.507 23.006H16.509c-.553 0-1-.447-1-1s.447-1 1-1h29.998c.553 0 1 .447 1 1S47.06 23.006 46.507 23.006zM46.507 19.006H16.509c-.553 0-1-.447-1-1s.447-1 1-1h29.998c.553 0 1 .447 1 1S47.06 19.006 46.507 19.006z"></path><path d="M16.509 23.006c-.553 0-1-.447-1-1v-4c0-.553.447-1 1-1s1 .447 1 1v4C17.509 22.559 17.062 23.006 16.509 23.006zM46.508 23.006c-.553 0-1-.447-1-1v-4c0-.553.447-1 1-1s1 .447 1 1v4C47.508 22.559 47.061 23.006 46.508 23.006z"></path><path d="M46.506,19.006c-0.149,0-0.301-0.033-0.443-0.104c-0.495-0.245-0.697-0.846-0.451-1.34l2.982-6.006
				c0.246-0.495,0.847-0.697,1.34-0.451c0.495,0.245,0.697,0.846,0.451,1.34l-2.982,6.006
				C47.228,18.803,46.874,19.006,46.506,19.006z"></path><path d="M49.49,13c-0.324,0-0.642-0.157-0.834-0.447l-3.98-5.998c-0.306-0.46-0.18-1.081,0.28-1.386
				c0.461-0.308,1.08-0.18,1.386,0.28l3.98,5.998c0.306,0.46,0.18,1.081-0.28,1.386C49.872,12.946,49.68,13,49.49,13z"></path><path d="M45.51 7.002c-.092 0-.184-.013-.275-.038L31.218 2.962c-.531-.152-.839-.705-.688-1.236.152-.532.711-.832 1.236-.688L45.783 5.04c.531.152.839.705.688 1.236C46.345 6.716 45.944 7.002 45.51 7.002zM16.494 19.006c-.368 0-.722-.203-.896-.556l-2.982-6.006c-.246-.494-.044-1.095.451-1.34.493-.246 1.095-.044 1.34.451l2.982 6.006c.246.494.044 1.095-.451 1.34C16.795 18.973 16.644 19.006 16.494 19.006z"></path><path d="M13.51,13c-0.189,0-0.382-0.054-0.552-0.167c-0.46-0.305-0.586-0.926-0.28-1.386l3.98-5.998
				c0.305-0.46,0.925-0.588,1.386-0.28c0.46,0.305,0.586,0.926,0.28,1.386l-3.98,5.998C14.151,12.843,13.834,13,13.51,13z"></path><path d="M17.49,7.002c-0.435,0-0.835-0.286-0.961-0.726c-0.151-0.531,0.156-1.084,0.688-1.236l14.017-4.002
				c0.526-0.145,1.084,0.155,1.236,0.688c0.151,0.531-0.156,1.084-0.688,1.236L17.766,6.964C17.674,6.989,17.582,7.002,17.49,7.002z
				"></path><path fill="none" stroke="#000" stroke-linecap="round" stroke-linejoin="round" stroke-miterlimit="10" stroke-width="2" d="M18.509 8.004"></path><path d="M19.508 11c-.366 0-.718-.201-.894-.55l-2.016-3.998c-.249-.493-.051-1.095.442-1.343.494-.252 1.094-.051 1.343.442l2.016 3.998c.249.493.051 1.095-.442 1.343C19.813 10.966 19.659 11 19.508 11zM43.499 11c-.151 0-.305-.034-.449-.107-.493-.248-.691-.85-.442-1.343l2.016-3.998c.248-.493.848-.694 1.343-.442.493.248.691.85.442 1.343l-2.016 3.998C44.217 10.799 43.865 11 43.499 11zM26.992 14.998h-3c-.553 0-1-.447-1-1v-3c0-.553.447-1 1-1h3c.553 0 1 .447 1 1v3C27.992 14.551 27.545 14.998 26.992 14.998zM24.992 12.998h1v-1h-1V12.998zM32.992 14.998h-3c-.553 0-1-.447-1-1v-3c0-.553.447-1 1-1h3c.553 0 1 .447 1 1v3C33.992 14.551 33.545 14.998 32.992 14.998zM30.992 12.998h1v-1h-1V12.998zM38.992 14.998h-3c-.553 0-1-.447-1-1v-3c0-.553.447-1 1-1h3c.553 0 1 .447 1 1v3C39.992 14.551 39.545 14.998 38.992 14.998zM36.992 12.998h1v-1h-1V12.998z"></path><path d="M29.992 11.998h-3c-.553 0-1-.447-1-1v-3c0-.553.447-1 1-1h3c.553 0 1 .447 1 1v3C30.992 11.551 30.545 11.998 29.992 11.998zM27.992 9.998h1v-1h-1V9.998zM35.992 11.998h-3c-.553 0-1-.447-1-1v-3c0-.553.447-1 1-1h3c.553 0 1 .447 1 1v3C36.992 11.551 36.545 11.998 35.992 11.998zM33.992 9.998h1v-1h-1V9.998z"></path><g><path d="M46.5,29c-0.553,0-1-0.447-1-1v-7c0-0.553,0.447-1,1-1s1,0.447,1,1v7C47.5,28.553,47.053,29,46.5,29z"></path></g><g><path d="M52.5,40.994c-0.553,0-1-0.447-1-1c0-2.757-2.243-5-5-5c-0.553,0-1-0.447-1-1s0.447-1,1-1c3.859,0,7,3.141,7,7
			C53.5,40.547,53.053,40.994,52.5,40.994z"></path></g><g><path d="M52.5,34.994c-0.553,0-1-0.447-1-1c0-2.757-2.243-5-5-5c-0.553,0-1-0.447-1-1s0.447-1,1-1c3.859,0,7,3.141,7,7
			C53.5,34.547,53.053,34.994,52.5,34.994z"></path></g><g><path d="M52.5,40.994c-0.553,0-1-0.447-1-1v-6c0-0.553,0.447-1,1-1s1,0.447,1,1v6C53.5,40.547,53.053,40.994,52.5,40.994z"></path></g><g><path d="M46.5,34.994h-1.246c-0.553,0-1-0.447-1-1s0.447-1,1-1H46.5c0.553,0,1,0.447,1,1S47.053,34.994,46.5,34.994z"></path></g></svg>