<svg width="650" height="512" viewBox="0 0 650 512" fill="none" xmlns="http://www.w3.org/2000/svg">
<path d="M551.32 243.695V225.503C551.32 222.034 549.942 218.708 547.49 216.255C545.037 213.802 541.71 212.424 538.241 212.424H492.075C490.357 212.424 488.657 212.086 487.07 211.428C485.483 210.771 484.041 209.808 482.826 208.593C481.612 207.378 480.648 205.937 479.991 204.35C479.334 202.763 478.996 201.062 478.996 199.344V181.153C478.996 177.684 480.374 174.358 482.826 171.905C485.279 169.452 488.606 168.074 492.075 168.074H493.533C495.25 168.074 496.951 167.736 498.538 167.078C500.125 166.421 501.567 165.457 502.781 164.243C503.996 163.028 504.959 161.587 505.616 160C506.274 158.413 506.612 156.712 506.612 154.994V136.803C506.612 133.334 505.234 130.008 502.781 127.555C500.328 125.102 497.002 123.724 493.533 123.724H104.625C102.908 123.724 101.207 124.062 99.6202 124.719C98.0333 125.377 96.5914 126.34 95.3769 127.555C94.1623 128.769 93.1989 130.211 92.5416 131.798C91.8843 133.385 91.546 135.086 91.546 136.803V154.994C91.546 156.712 91.8843 158.413 92.5416 160C93.1989 161.587 94.1623 163.028 95.3769 164.243C96.5914 165.457 98.0333 166.421 99.6201 167.078C101.207 167.736 102.908 168.074 104.625 168.074C106.343 168.074 108.044 168.412 109.631 169.069C111.218 169.727 112.659 170.69 113.874 171.905C115.089 173.119 116.052 174.561 116.709 176.148C117.367 177.735 117.705 179.436 117.705 181.153V199.344C117.705 201.062 117.367 202.763 116.709 204.35C116.052 205.937 115.089 207.378 113.874 208.593C112.659 209.808 111.218 210.771 109.631 211.428C108.044 212.086 106.343 212.424 104.625 212.424H54.0461C52.3285 212.424 50.6277 212.762 49.0408 213.42C47.4539 214.077 46.012 215.04 44.7975 216.255C43.583 217.469 42.6195 218.911 41.9622 220.498C41.3049 222.085 40.9666 223.786 40.9666 225.503V243.695C40.9666 245.412 41.3049 247.113 41.9622 248.7C42.6195 250.287 43.5829 251.729 44.7975 252.943C46.012 254.158 47.4539 255.121 49.0408 255.778C50.6276 256.436 52.3285 256.774 54.0461 256.774H73.8927C77.3615 256.774 80.6883 258.152 83.1412 260.605C85.5941 263.058 86.9721 266.385 86.9721 269.853V288.045C86.9721 291.514 85.5941 294.84 83.1412 297.293C80.6883 299.746 77.3615 301.124 73.8927 301.124H73.8447C70.3758 301.124 67.049 302.502 64.5961 304.955C62.1432 307.408 60.7652 310.735 60.7652 314.204V332.395C60.7652 334.112 61.1035 335.813 61.7608 337.4C62.4181 338.987 63.3816 340.429 64.5961 341.643C65.8106 342.858 67.2525 343.821 68.8394 344.479C70.4263 345.136 72.1271 345.474 73.8447 345.474H76.7161C80.185 345.474 83.5118 346.852 85.9646 349.305C88.4175 351.758 89.7955 355.085 89.7955 358.554V376.745C89.5318 391.32 79.5915 389.824 79.5915 389.824C77.8739 389.824 76.1731 390.163 74.5862 390.82C72.9994 391.477 71.5575 392.441 70.3429 393.655C69.1284 394.87 68.165 396.312 67.5077 397.898C66.8504 399.485 66.5121 401.186 66.5121 402.904V421.095C66.5121 422.812 66.8504 424.513 67.5077 426.1C68.165 427.687 69.1284 429.129 70.343 430.343C71.5575 431.558 72.9994 432.521 74.5863 433.179C76.1731 433.836 77.874 434.174 79.5916 434.174H580.555C584.023 434.174 587.35 432.796 589.803 430.343C592.256 427.891 593.634 424.564 593.634 421.095V402.904C593.634 399.435 592.256 396.108 589.803 393.655C587.35 391.202 584.023 389.824 580.555 389.824H569.214C565.745 389.824 562.418 388.446 559.966 385.993C557.513 383.54 556.135 380.214 556.135 376.745V358.554C556.135 355.085 557.513 351.758 559.966 349.305C562.418 346.852 565.745 345.474 569.214 345.474H595.954C597.672 345.474 599.372 345.136 600.959 344.478C602.546 343.821 603.988 342.858 605.203 341.643C606.417 340.429 607.38 338.987 608.038 337.4C608.695 335.813 609.033 334.112 609.033 332.395V314.204C609.033 312.486 608.695 310.785 608.038 309.198C607.38 307.611 606.417 306.17 605.203 304.955C603.988 303.74 602.546 302.777 600.959 302.12C599.372 301.462 597.672 301.124 595.954 301.124H537.842C534.373 301.124 531.047 299.746 528.594 297.293C526.141 294.84 524.763 291.514 524.763 288.045V269.853C524.763 266.385 526.141 263.058 528.594 260.605C531.047 258.152 534.373 256.774 537.842 256.774H538.241C539.959 256.774 541.659 256.436 543.246 255.778C544.833 255.121 546.275 254.158 547.49 252.943C548.704 251.729 549.668 250.287 550.325 248.7C550.982 247.113 551.32 245.412 551.32 243.695Z" fill="#DBE8EC"/>
<path d="M258.498 363.036C339.847 363.036 405.793 297.089 405.793 215.74C405.793 134.391 339.847 68.4441 258.498 68.4441C177.148 68.4441 111.202 134.391 111.202 215.74C111.202 297.089 177.148 363.036 258.498 363.036Z" fill="#DBE8EC"/>
<path d="M206.059 358.286C205.013 358.27 203.815 357.091 200.827 348.011C194.807 329.712 191.796 320.563 194.362 309.791C195.415 305.372 197.468 301.149 201.575 292.702C204.905 285.854 206.42 283.894 208.752 278.298C212.419 269.499 211.947 266.491 213.81 261.717C220.363 244.92 243.818 237.027 245.796 239.593C246.633 240.679 243.275 243.187 238.104 252.379C234.882 257.95 232.281 263.858 230.347 269.997C226.537 282.883 230.928 284.372 227.284 297.883C225.486 304.552 224.26 304.767 220.587 316.591C218.783 322.395 218.663 323.682 216.632 331.038C211.791 348.575 209.098 358.33 206.059 358.286Z" fill="#22AC4B"/>
<path d="M187.033 335.471C185.107 336.961 180.281 330.494 163.609 320.117C152.262 313.053 138.046 305.808 136.957 305.255C125.873 299.627 123.228 298.959 119.375 294.813C114.5 289.569 115.724 287.402 108.868 277.485C103.558 269.805 101.896 269.763 97.787 262.834C94.2801 256.921 90.2194 248.065 92.0982 246.645C92.9797 245.979 94.8971 247.156 98.5057 249.417C103.91 252.804 105.205 254.747 108.606 257.073C114.593 261.167 115.898 258.783 121.958 262.624C124.398 264.171 127.119 267.104 132.56 272.972C137.928 278.76 138.097 279.484 141.028 282.216C144.463 285.322 148.205 288.072 152.195 290.423C158.902 294.709 165.299 299.461 171.338 304.646C183.848 315.965 189.86 333.285 187.033 335.471Z" fill="#22AC4B"/>
<path d="M95.947 252.256C102.287 258.637 108.555 264.991 115.045 271.112C116.655 272.653 118.296 274.161 119.932 275.673C121.561 277.192 123.206 278.693 124.867 280.177L134.866 289.038C141.453 295.077 148.379 300.736 155.611 305.987C159.26 308.582 163.031 310.996 166.782 313.483C170.604 315.927 174.262 318.619 177.734 321.54C181.212 324.568 184.282 328.036 186.866 331.856C189.449 335.674 191.622 339.753 193.35 344.026C196.875 352.563 198.786 361.562 200.193 370.452C200.883 374.91 201.475 379.365 202.009 383.82C202.276 386.04 202.55 388.287 202.781 390.533C203.01 392.78 203.18 395.032 203.346 397.283C203.942 406.289 201.218 406.465 199.954 397.637C199.324 393.216 198.616 388.847 197.858 384.425L195.63 371.202C194.106 362.431 192.587 353.702 189.539 345.518C188.028 341.423 186.151 337.472 183.93 333.714C181.746 329.929 179.117 326.419 176.101 323.258C172.984 320.1 169.585 317.233 165.946 314.693C162.315 312.089 158.568 309.617 154.823 307.141C147.333 302.199 139.673 297.385 132.563 291.81C129.011 289.026 125.566 286.103 122.281 283.008C120.632 281.467 119.002 279.908 117.389 278.331C115.793 276.736 114.22 275.119 112.67 273.481C106.448 266.953 100.745 259.948 95.6129 252.532L95.947 252.256Z" fill="#22AC4B"/>
<path d="M174.972 351.892C174.388 353.346 169.034 350.609 160.691 353.071C154.605 354.868 154.131 357.306 145.937 361.236C140.042 364.064 135.926 366.039 130.584 366.058C123.757 366.083 122.082 362.89 111.916 360.087C106.711 358.69 101.36 357.912 95.9728 357.769C79.0436 356.95 70.0903 362.34 68.551 359.75C66.8753 356.931 75.5005 347.202 85.9913 340.58C108.052 326.654 132.153 330.384 135.685 330.984C158.533 334.862 176.082 349.131 174.972 351.892Z" fill="#22AC4B"/>
<path d="M73.8931 355.495C76.5145 353.082 79.5132 351.115 82.7702 349.671C83.5845 349.306 84.4152 348.976 85.2424 348.626C86.0849 348.326 86.9394 348.055 87.7915 347.768C88.6529 347.518 89.5256 347.303 90.3961 347.068C91.2665 346.833 92.1627 346.727 93.048 346.554C96.6177 345.964 100.248 345.833 103.851 346.163C104.753 346.225 105.651 346.334 106.541 346.492L107.88 346.702L108.547 346.808L109.154 346.918C110.764 347.234 112.428 347.456 114.101 347.627C120.957 348.307 127.857 348.4 134.729 347.906C141.659 347.408 148.527 346.383 155.527 345.726C159.087 345.352 162.675 345.331 166.239 345.662C168.128 345.873 169.98 346.336 171.746 347.038C173.709 347.801 175.421 349.095 176.689 350.777C178.904 353.622 180.843 356.67 182.481 359.882C184.067 363.199 185.177 366.724 185.778 370.352L186.167 373.027C186.305 373.917 186.344 374.805 186.43 375.695C186.616 377.476 186.648 379.241 186.71 381.011C186.756 382.779 186.72 384.535 186.729 386.295L186.527 391.551C186.127 398.541 183.402 398.436 183.118 391.53C182.958 384.712 182.327 377.913 181.229 371.182C180.637 367.957 179.683 364.81 178.384 361.799C176.957 358.77 175.27 355.871 173.343 353.133C171.945 350.923 168.854 349.771 165.684 349.093C162.357 348.478 158.985 348.144 155.603 348.095C148.669 348.026 141.738 348.427 134.859 349.297L124.464 350.59C120.954 351.049 117.415 351.261 113.874 351.224C112.978 351.178 112.083 351.164 111.181 351.069C110.731 351.028 110.278 350.997 109.829 350.945L108.475 350.735L105.942 350.342C105.117 350.235 104.303 350.018 103.47 349.978L100.982 349.749C100.151 349.693 99.3172 349.713 98.4841 349.69C98.0675 349.694 97.6495 349.652 97.2332 349.668L95.9833 349.72C95.1502 349.761 94.3108 349.761 93.4833 349.881C86.6996 350.495 80.1194 352.521 74.1659 355.831L73.8931 355.495Z" fill="#22AC4B"/>
<path d="M188.536 264.061C185.666 264.271 182.101 253.762 180.735 245.158C179.134 235.069 181.329 232.468 181.127 216.162C181.104 209.688 180.653 203.223 179.778 196.809C178.079 184.741 175.874 181.549 174.19 173.102C170.132 152.751 175.281 132.925 177.957 132.873C179.285 132.847 179.571 137.702 182.615 145.825C185.525 153.592 188.061 155.624 195.734 168.56C201.159 177.705 203.872 182.277 204.645 184.792C207.512 194.112 205.979 202.14 203.724 213.245C201.136 225.99 199.011 226.115 194.733 242.662C191.015 257.041 190.822 263.894 188.536 264.061Z" fill="#22AC4B"/>
<path d="M178.037 142.489C181.64 153.816 185.078 165.182 189.123 176.254C189.623 177.64 190.144 179.013 190.686 180.376L191.088 181.416L191.494 182.559C191.744 183.321 191.955 184.095 192.126 184.878C192.721 187.94 192.959 191.061 192.836 194.178C192.739 197.202 192.487 200.219 192.079 203.216C191.727 206.194 191.219 209.129 190.764 212.06C189.796 217.914 188.8 223.727 188.155 229.589C187.463 235.447 187.296 241.356 187.657 247.243C187.85 250.185 188.209 253.113 188.734 256.014C189.007 257.453 189.241 258.94 189.486 260.413L189.856 262.625L190.045 263.731L190.173 264.844C190.916 270.778 191.341 276.747 191.445 282.726C191.488 288.697 191.439 294.683 191.076 300.63C190.762 306.582 190.262 312.512 189.822 318.418C189.383 324.328 188.971 330.221 188.844 336.082C188.745 339.018 188.8 341.929 188.821 344.843L189.069 349.18C189.133 350.629 189.402 352.036 189.526 353.47C191.095 365.089 193.463 376.76 195.239 388.534C196.138 394.425 188.525 377.842 184.951 354.095C184.175 348.073 183.965 341.992 184.323 335.931C184.417 332.921 184.687 329.945 184.892 326.959C185.166 323.988 185.429 321.013 185.745 318.058L187.611 300.359C188.238 294.472 188.754 288.593 189.075 282.693L189.183 278.27C189.195 277.532 189.233 276.793 189.224 276.057L189.185 273.846C189.143 272.373 189.167 270.893 189.072 269.422L188.712 265.014C188.637 263.537 188.343 262.091 188.138 260.632C187.911 259.174 187.701 257.726 187.436 256.244C187.17 254.772 186.969 253.292 186.742 251.813C186.569 250.329 186.367 248.847 186.257 247.355C185.3 235.425 185.614 223.427 187.195 211.563C187.873 205.662 188.727 199.809 189.004 194.051C189.168 191.231 189.007 188.402 188.524 185.62C188.381 184.949 188.241 184.278 188.05 183.629L187.748 182.662L187.387 181.61C186.884 180.193 186.406 178.771 185.95 177.346C185.014 174.501 184.201 171.626 183.41 168.75C182.608 165.877 181.886 162.985 181.196 160.087C179.816 154.292 178.586 148.467 177.615 142.588L178.037 142.489Z" fill="#22AC4B"/>
<path d="M237.718 353.273C237.134 349.363 247.938 342.833 258.276 342.273C259.386 342.213 259.621 342.269 273.826 344.094C285.479 345.592 286.776 345.741 288.303 345.901C302.598 347.398 300.981 346.039 305.471 347.208C314.389 349.528 314.247 353.191 326.812 357.7C331.633 359.43 334.236 359.818 334.287 361.024C334.381 363.267 325.527 365.323 314.861 367.743C301.686 370.733 295.098 372.229 290.102 371.705C280.626 370.712 280.248 366.986 266.069 361.713C248.39 355.138 238.268 356.946 237.718 353.273Z" fill="#22AC4B"/>
<path d="M228.34 396.255C227.964 394.611 227.598 392.962 227.31 391.298C227.013 389.635 226.731 387.967 226.503 386.288C226.291 384.606 226.114 382.918 225.971 381.223C225.66 377.809 225.674 374.374 226.013 370.964C226.337 367.483 227.196 364.072 228.559 360.853C229.27 359.216 230.222 357.696 231.384 356.341C231.976 355.664 232.639 355.051 233.36 354.512C234.093 353.991 234.881 353.553 235.71 353.205C236.529 352.892 237.373 352.649 238.233 352.48C239.051 352.3 239.869 352.121 240.683 351.922L245.599 350.839C248.903 350.09 252.243 349.51 255.606 349.1C259.052 348.703 262.535 348.754 265.967 349.253C269.372 349.812 272.716 350.692 275.954 351.882L278.35 352.747C279.149 353.039 279.881 353.269 280.647 353.539C281.395 353.816 282.182 354.028 282.959 354.257C283.737 354.482 284.508 354.723 285.306 354.907C288.455 355.736 291.672 356.411 294.887 357.084C301.336 358.379 307.865 359.406 314.43 360.176C317.712 360.506 321.009 360.851 324.309 360.981C327.618 361.172 330.936 361.116 334.237 360.813L334.336 361.234C331.101 362.273 327.756 362.93 324.368 363.195L321.832 363.414L319.295 363.522C317.6 363.6 315.911 363.585 314.216 363.579C310.835 363.505 307.451 363.342 304.086 362.993C300.713 362.7 297.361 362.198 294.018 361.625C290.666 361.019 287.35 360.23 284.083 359.262C283.261 359.039 282.446 358.751 281.63 358.481C280.814 358.207 279.997 357.951 279.188 357.618C278.389 357.304 277.545 356.979 276.79 356.662L274.515 355.713C268.441 353.235 262.294 351.482 255.724 351.467C252.422 351.457 249.125 351.731 245.869 352.284C244.223 352.51 242.6 352.888 240.968 353.209C240.153 353.381 239.342 353.573 238.532 353.764C237.754 353.926 236.995 354.168 236.266 354.486C234.869 355.163 233.666 356.183 232.77 357.451C231.886 358.747 231.22 360.178 230.797 361.689C230 364.796 229.6 367.991 229.609 371.199C229.534 374.434 229.658 377.693 229.797 380.968C229.881 382.605 230.001 384.244 230.158 385.884C230.296 387.525 230.444 389.17 230.631 390.812C231.333 397.391 228.708 397.9 228.34 396.255Z" fill="#22AC4B"/>
<path d="M225.688 336.531C223.773 335.491 228.037 322.258 234.635 310.335C239.027 302.399 243.363 294.563 252.131 287.478C262.976 278.714 274.502 276.027 283.464 273.938C297.915 270.569 299.788 273.399 309.841 269.461C324.454 263.735 330.06 254.008 332.582 255.804C335.205 257.672 331.981 270.199 323.693 277.704C318.848 282.091 312.5 284.556 308.542 286.092C300.864 289.073 297.752 288.609 293.956 292.34C291.596 294.66 292.099 295.529 287.919 301.926C284.513 307.137 282.726 309.873 280.263 312.026C275.95 315.798 272.834 314.927 260.316 317.665C249.876 319.947 244.656 321.089 239.279 324.362C230.054 329.978 227.139 337.319 225.688 336.531Z" fill="#22AC4B"/>
<path d="M326.217 265.918C326.055 267.3 325.508 268.61 324.638 269.696C324.209 270.211 323.821 270.788 323.345 271.26C322.877 271.742 322.399 272.221 321.914 272.691C319.901 274.453 317.725 276.02 315.416 277.37C313.134 278.731 310.786 279.976 308.379 281.101C307.172 281.64 305.961 282.172 304.742 282.687C303.532 283.23 302.297 283.691 301.061 284.152L297.353 285.542C296.11 285.984 294.849 286.357 293.598 286.767C291.09 287.571 288.591 288.41 286.037 289.034C280.982 290.494 275.819 291.482 270.675 292.503L270.811 292.465C269.303 292.894 267.7 293.468 266.164 294.067C264.615 294.671 263.084 295.328 261.57 296.038C260.059 296.751 258.574 297.521 257.108 298.329C255.658 299.164 254.219 300.024 252.825 300.954C247.231 304.66 242.277 309.253 238.157 314.55C236.14 317.199 234.336 320.003 232.761 322.936C231.226 325.864 229.935 328.913 228.898 332.052C228.651 332.837 228.357 333.605 228.148 334.401L227.5 336.778C227.109 338.39 226.763 340.027 226.392 341.647C226.219 342.463 226.006 343.265 225.857 344.087L225.414 346.555C225.129 348.203 224.798 349.837 224.552 351.493C224.108 354.816 223.548 358.113 223.216 361.456L222.636 366.454L222.133 371.466L221.881 373.972C221.814 374.81 221.743 375.648 221.66 376.484L221.185 381.506L220.384 391.573C219.379 405.011 215.906 404.931 216.27 391.358C216.574 377.741 217.958 364.17 220.409 350.772C220.719 349.094 221.117 347.425 221.467 345.752L222.009 343.245C222.188 342.409 222.441 341.584 222.659 340.755C223.117 339.098 223.547 337.443 224.028 335.79L224.878 333.322C225.154 332.498 225.517 331.705 225.832 330.896C228.535 324.531 232.252 318.646 236.84 313.471C241.347 308.333 246.433 303.732 251.995 299.76C253.362 298.737 254.778 297.783 256.209 296.85C257.633 295.905 259.083 294.994 260.568 294.138C262.043 293.265 263.549 292.439 265.085 291.659C266.636 290.879 268.158 290.155 269.851 289.491L269.987 289.454C272.493 288.753 274.989 288.019 277.503 287.37C278.761 287.045 280.014 286.703 281.257 286.335L285.005 285.297L288.755 284.272L292.477 283.171C293.714 282.795 294.967 282.455 296.192 282.05L299.875 280.85C302.36 280.11 304.722 279.1 307.169 278.266C309.546 277.296 311.944 276.34 314.239 275.209C314.814 274.927 315.416 274.682 315.969 274.368L317.643 273.438C318.798 272.862 319.811 272.112 320.902 271.436L322.406 270.275C322.92 269.896 323.333 269.429 323.809 269.006C324.714 268.161 325.393 267.104 325.784 265.93L326.217 265.918Z" fill="#22AC4B"/>
<path d="M234.488 249.199C231.553 251.51 229.035 254.306 227.044 257.465C226.509 258.219 226.065 259.037 225.6 259.834C225.109 260.614 224.716 261.456 224.287 262.272C223.842 263.078 223.491 263.937 223.123 264.783L222.565 266.047L222.072 267.342C220.763 270.801 219.736 274.361 219 277.985C218.3 281.572 217.662 285.428 216.782 289.14C215.907 292.872 214.876 296.572 213.755 300.236C212.633 303.9 211.475 307.538 210.445 311.193C209.419 314.841 208.638 318.553 208.107 322.304C207.975 323.241 207.851 324.178 207.752 325.12C207.645 326.062 207.559 327.004 207.545 327.934C207.52 328.87 207.448 329.789 207.477 330.732L207.563 333.562C207.702 337.334 208.037 341.115 208.321 344.895L209.214 356.24C209.828 363.806 210.624 371.363 211.217 378.934C211.801 386.509 212.38 394.085 212.9 401.671C212.9 401.671 210.102 405.83 209.512 402.058C208.913 398.285 208.377 394.506 207.905 390.719C207.403 386.935 206.988 383.142 206.611 379.345C205.879 371.748 205.429 364.127 205.13 356.493C204.739 348.842 204.761 341.177 205.193 333.529L205.391 330.649C205.463 329.689 205.618 328.715 205.718 327.752C205.78 327.271 205.821 326.784 205.9 326.31L206.153 324.895C206.302 323.949 206.475 323.006 206.657 322.065C207.352 318.297 208.211 314.562 209.092 310.849L210.344 305.272C210.726 303.407 211.105 301.546 211.432 299.676C212.097 295.939 212.657 292.191 213.245 288.451C213.865 284.699 214.347 281.019 215.255 277.162C215.435 276.203 215.724 275.265 215.986 274.323C216.263 273.384 216.489 272.433 216.81 271.506L217.822 268.745C218.145 267.821 218.598 266.941 218.98 266.039L219.584 264.698L220.28 263.398C220.75 262.535 221.203 261.667 221.752 260.847C222.77 259.167 223.924 257.573 225.202 256.081C227.653 253.011 230.759 250.528 234.293 248.813L234.488 249.199Z" fill="#22AC4B"/>
<path d="M176.241 321.362C180.711 319.579 179.08 305.181 178.178 297.219C176.878 285.739 174.743 283.958 172.112 269.21C171.04 263.197 170.432 257.132 169.217 245.002C167.462 227.482 167.641 224.481 166.895 218.117C163.755 191.34 151.355 165.87 146.643 166.822C144.874 167.179 144.332 171.341 143.247 179.666C141.867 190.252 145.449 193.75 143.486 201.689C142.389 206.124 141.499 204.8 137.964 212.893C133.914 222.164 130.862 229.152 132.812 236.454C133.995 240.887 135.822 240.94 137.499 247.259C138.718 251.85 138.325 253.971 138.958 258.557C139.452 262.138 140.312 265.335 143.587 273.658C148.823 286.96 151.441 293.611 155.052 299.592C159.519 306.989 170.954 323.47 176.241 321.362Z" fill="#22AC4B"/>
<path d="M146.838 166.728C148.179 169.251 149.322 171.874 150.257 174.575C151.215 177.271 152.02 180.019 152.667 182.806C153.34 185.595 153.865 188.417 154.242 191.261C154.448 192.682 154.565 194.113 154.73 195.542C154.866 196.972 154.909 198.409 154.998 199.845C155.05 201.282 155.042 202.72 155.066 204.16C155.068 205.599 154.988 207.037 154.938 208.477L154.448 216.929C154.315 219.736 154.189 222.531 154.11 225.323C154.099 228.11 154.008 230.894 154.133 233.673C154.314 239.269 154.787 244.852 155.55 250.399C156.272 255.99 157.202 261.57 158.22 267.13C158.775 269.9 159.217 272.708 159.956 275.406C160.311 276.763 160.607 278.135 161.01 279.478C161.447 280.811 161.907 282.138 162.366 283.464C162.603 284.124 162.807 284.795 163.07 285.446L163.874 287.396L165.535 291.27C166.753 293.818 167.91 296.372 169.174 298.907L172.925 306.529C173.539 307.81 174.186 309.071 174.774 310.368L176.526 314.263C177.75 316.836 178.717 319.527 179.789 322.173L180.576 324.165C180.835 324.831 181.043 325.515 181.279 326.189L182.656 330.25C183.633 332.941 184.359 335.707 185.14 338.458L186.294 342.59C186.635 343.978 186.926 345.377 187.245 346.77L188.172 350.956C188.462 352.355 188.801 353.746 188.994 355.16L190.335 363.618L190.647 365.735C190.745 366.442 190.793 367.154 190.869 367.862L191.284 372.116C191.546 374.953 191.879 377.785 192.045 380.627C192.252 386.314 192.627 391.994 192.607 397.676C192.607 397.676 189.437 403.422 189.199 397.795C189.124 394.979 188.765 392.182 188.551 389.377L187.863 380.972C187.762 379.57 187.518 378.185 187.371 376.789L186.874 372.609L186.377 368.431C186.288 367.735 186.226 367.036 186.114 366.344L185.763 364.273L184.451 355.975C184.266 354.584 183.937 353.225 183.658 351.855L182.827 347.742C182.546 346.373 182.292 344.996 181.99 343.631L180.952 339.569C180.258 336.861 179.633 334.132 178.752 331.477C175.58 320.747 171.333 310.358 167.012 299.88C165.905 297.281 164.884 294.616 163.817 291.99L162.367 287.974L161.622 285.976C161.378 285.308 161.192 284.617 160.975 283.939C160.557 282.577 160.139 281.215 159.699 279.862C159.305 278.493 159.019 277.093 158.674 275.711C157.966 272.939 157.423 270.175 156.843 267.405L153.195 250.801C151.927 245.223 151.038 239.565 150.535 233.866C150.134 228.151 150.163 222.414 150.62 216.702L151.268 208.229C151.346 206.844 151.497 205.462 151.544 204.074C151.575 202.686 151.639 201.297 151.643 199.907L151.573 195.736C151.496 194.348 151.467 192.953 151.35 191.565C151.215 190.18 151.141 188.784 150.949 187.402C150.796 186.016 150.635 184.627 150.406 183.249C149.985 180.486 149.463 177.732 148.804 175.006C148.173 172.267 147.387 169.566 146.448 166.916L146.838 166.728Z" fill="#22AC4B"/>
<path d="M198.094 289.97C195.065 289.197 195.309 276.878 196.774 268.469C198.134 260.949 200.775 253.718 204.582 247.092C208.16 240.981 209.836 240.515 212.81 234.313C216.14 227.372 215.184 225.573 217.847 219.343C220.755 212.54 222.608 213.02 230.437 201.79C236.296 193.385 239.406 188.923 241.445 182.068C244.042 173.334 242.964 167.224 244.333 167.068C245.849 166.896 249.142 174.168 248.962 182.169C248.863 186.565 247.785 188.131 243.338 200.891C240.213 209.858 238.643 214.405 238.281 217.471C237.384 225.061 239.259 226.831 238.578 235.199C238.327 238.285 237.825 244.455 235.153 250.191C230.073 261.094 222.089 259.824 211.228 271.887C202.181 281.937 200.687 290.632 198.094 289.97Z" fill="#22AC4B"/>
<path d="M245.479 177.23C245.815 179.916 245.653 182.641 245.002 185.268C244.436 187.88 243.709 190.454 242.827 192.976C241.988 195.511 240.989 197.981 239.945 200.428L238.329 204.077C237.78 205.288 237.167 206.465 236.586 207.659C235.436 210.058 234.152 212.376 232.91 214.722C231.636 217.05 230.268 219.318 228.951 221.619C227.617 223.909 226.173 226.127 224.765 228.37L220.613 234.991C215.073 243.874 210.5 253.325 206.975 263.183C205.253 268.144 203.793 273.192 202.599 278.305L201.72 282.143L200.991 286.013C200.475 288.585 200.127 291.191 199.689 293.773C198.958 298.969 198.4 304.18 197.934 309.388C197.73 311.995 197.498 314.597 197.361 317.199C197.284 318.529 197.212 319.736 197.26 320.969C197.301 322.206 197.42 323.439 197.617 324.661C199.189 335.111 200.509 345.591 201.458 356.117C202.338 366.646 202.982 377.207 203.039 387.794C203.075 398.365 200.633 408.888 200.418 403.637C200.393 402.327 200.356 401.018 200.275 399.706L200.101 395.776C199.977 393.157 199.762 390.538 199.631 387.921C198.883 377.453 197.96 366.996 196.861 356.55C195.838 346.099 194.771 335.641 193.561 325.206C193.383 323.821 193.293 322.425 193.291 321.028C193.298 319.652 193.38 318.276 193.538 316.908C193.795 314.258 194.098 311.62 194.481 308.992C195.222 303.734 196.258 298.529 197.357 293.349C198.5 288.177 199.772 283.043 201.174 277.945C202.529 272.837 204.055 267.779 205.644 262.737C208.861 252.682 212.401 242.613 217.486 233.2C218.821 230.904 220.113 228.511 221.512 226.301L225.671 219.633C228.391 215.162 231.087 210.674 233.613 206.102C236.182 201.547 238.537 196.893 240.679 192.14C241.747 189.762 242.699 187.341 243.537 184.879L244.112 183.019C244.29 182.395 244.434 181.765 244.598 181.135C244.908 179.891 245.063 178.613 245.058 177.331L245.479 177.23Z" fill="#22AC4B"/>
<path d="M256.194 242.062C272.374 231.365 273.631 231.058 277.339 227.31C285.938 218.618 284.225 215.166 292.113 207.101C302.378 196.606 317.162 190.301 320.225 193.517C321.82 195.193 319.157 198.321 313.498 214.372C309.191 226.588 309.824 227.357 307.366 230.938C303.798 236.136 298.836 239.154 288.913 245.19C279.796 250.735 277.217 250.95 272.659 255.711C269.948 258.543 269.805 259.569 265.01 265.275C261.969 269.017 258.692 272.56 255.199 275.884C249.171 281.423 243.878 289.61 233.278 288.548C231.166 288.337 237.321 254.539 256.194 242.062Z" fill="#22AC4B"/>
<path d="M311.694 202.643C308.684 207.922 305.104 212.854 301.018 217.352C298.987 219.624 296.842 221.792 294.594 223.85C293.493 224.908 292.307 225.872 291.157 226.879C289.996 227.875 288.759 228.778 287.56 229.73L283.834 232.392L282.061 233.681C281.464 234.103 280.88 234.538 280.325 235.009L278.633 236.385C278.065 236.84 277.56 237.361 277.02 237.845C275.927 238.801 274.963 239.888 273.956 240.93C272.041 243.111 270.233 245.398 268.507 247.807C266.804 250.236 265.05 252.707 263.182 255.143C261.302 257.603 259.212 259.895 256.934 261.992C254.649 264.072 252.193 265.957 249.593 267.626C247.182 269.255 245.023 271.23 243.187 273.487C241.308 275.789 239.603 278.228 238.086 280.783C236.567 283.356 235.179 286.004 233.928 288.718C232.714 291.451 231.509 294.193 230.516 297.019C228.476 302.648 226.774 308.394 225.42 314.226C224.043 320.049 222.983 325.937 222.065 331.834C221.163 337.734 220.433 343.656 219.95 349.597C219.476 355.537 219.215 361.492 219.228 367.442C219.258 370.416 219.286 373.389 219.398 376.359C219.511 379.331 219.717 382.279 219.884 385.3C220.524 397.321 216.126 397.601 215.276 385.606C214.881 379.612 214.556 373.465 214.704 367.4C214.812 361.318 215.216 355.248 215.876 349.211C216.532 343.174 217.431 337.166 218.644 331.222C219.843 325.276 221.384 319.405 223.131 313.609C224.839 307.8 226.921 302.112 229.144 296.492C231.355 290.856 233.936 285.373 236.872 280.079C238.347 277.412 239.991 274.843 241.794 272.386C243.616 269.854 245.784 267.59 248.235 265.66C252.911 262.116 256.982 257.838 260.29 252.993C262.01 250.599 263.597 248.064 265.362 245.577C267.119 243.035 269.047 240.615 271.133 238.335C272.233 237.231 273.293 236.086 274.482 235.076C275.07 234.566 275.626 234.017 276.24 233.54L278.073 232.101C278.678 231.616 279.309 231.164 279.963 230.747L281.889 229.454L285.601 227.006C295.389 220.18 304.066 211.886 311.325 202.416L311.694 202.643Z" fill="#22AC4B"/>
<path d="M99.034 398.8L87.099 402.204L127.848 412.378L188.005 426.842L238.629 442.292L282.995 429.358L330.891 415.395L484.516 386.062L521.553 388.71L549.44 386.062L541.504 379.115H457.561L99.034 398.8Z" fill="#B9D4DB"/>
<path d="M93.3318 391.34C93.3318 391.34 100.783 397.257 129.711 391.34C158.639 385.422 490.041 365.405 490.041 365.405L532.729 377.314C532.729 377.314 540.838 378.848 545.002 375.78C549.166 372.712 536.893 385.203 521.553 388.71C506.212 392.216 344.917 417.755 330.891 415.395C330.891 415.395 303.552 413.857 291.061 408.433C291.061 408.433 272.159 427.499 238.629 442.292C238.629 442.292 195.456 447.661 179.677 436.265C163.898 424.87 137.162 416.104 121.383 413.474C105.604 410.844 93.3318 391.34 93.3318 391.34Z" fill="#22AC4B"/>
<path d="M487.146 262.603L305.032 235.209V397.257L487.146 369.863V370.281C488.15 368.747 489.115 367.122 490.041 365.405C496.889 352.667 501.108 335.253 501.108 316.041C501.108 296.829 496.889 279.416 490.041 266.678C489.2 265.107 488.318 263.609 487.392 262.185L487.146 262.603Z" fill="#F9AE2B"/>
<path d="M379.771 246.453C391.13 262.643 398.426 287.809 398.426 316.061C398.426 344.542 391.012 369.881 379.488 386.053V386.062L428.879 378.629C441.243 366.804 449.68 343.218 449.68 316.061C449.68 289.215 441.444 265.867 429.308 253.905L379.771 246.453Z" fill="#22AC4B"/>
<path d="M305.032 397.257C329.722 397.257 349.738 360.904 349.738 316.061C349.738 271.218 329.722 234.866 305.032 234.866C280.341 234.866 260.325 271.218 260.325 316.061C260.325 360.904 280.341 397.257 305.032 397.257Z" fill="#F9F8F9"/>
<path d="M305.032 386.737C326.524 386.737 343.946 355.095 343.946 316.061C343.946 277.028 326.524 245.385 305.032 245.385C283.54 245.385 266.117 277.028 266.117 316.061C266.117 355.095 283.54 386.737 305.032 386.737Z" fill="#22AC4B"/>
<path d="M343.946 316.061C343.488 312.136 332.787 322.225 317.742 337.648C306.864 348.8 302.229 352.725 295.827 355.18C286.989 358.569 284.482 355.674 278.733 359.563C270.793 364.934 272.423 372.591 266.023 379.286C258.309 387.356 245.978 386.658 238.848 386.737C208.04 387.08 172.925 398.586 172.664 406.461C172.553 409.841 178.886 412.567 180.992 413.474C190.582 417.602 199.819 414.154 209.043 411.72C221.722 408.376 231.199 407.785 245.423 406.899C255.971 406.242 274.719 406.075 293.636 406.899C300.762 407.21 307.808 407.657 313.359 402.955C319.48 397.77 313.452 388.679 321.808 379.848C327.198 374.152 335.095 364.684 338.283 352.798C342.787 336 345.353 328.11 343.946 316.061Z" fill="#F9AE2B"/>
<path d="M55.6507 225.555H87.9535" stroke="#B9D4DB" stroke-width="3" stroke-miterlimit="10"/>
<path d="M55.6507 234.866H87.9535" stroke="#B9D4DB" stroke-width="3" stroke-miterlimit="10"/>
<path d="M55.6507 244.176H87.9535" stroke="#B9D4DB" stroke-width="3" stroke-miterlimit="10"/>
<path d="M293.452 104.457H325.754" stroke="#B9D4DB" stroke-width="3" stroke-miterlimit="10"/>
<path d="M293.452 113.767H325.754" stroke="#B9D4DB" stroke-width="3" stroke-miterlimit="10"/>
<path d="M293.452 123.078H325.754" stroke="#B9D4DB" stroke-width="3" stroke-miterlimit="10"/>
<path d="M405.107 236.967C416.095 236.967 425.002 228.059 425.002 217.071C425.002 206.084 416.095 197.176 405.107 197.176C394.119 197.176 385.212 206.084 385.212 217.071C385.212 228.059 394.119 236.967 405.107 236.967Z" fill="#B9D4DB"/>
<path d="M367.09 213.264C372.813 213.264 377.453 208.624 377.453 202.901C377.453 197.177 372.813 192.538 367.09 192.538C361.366 192.538 356.727 197.177 356.727 202.901C356.727 208.624 361.366 213.264 367.09 213.264Z" fill="#B9D4DB"/>
<path d="M376.608 173.651C379.91 173.651 382.586 170.975 382.586 167.673C382.586 164.372 379.91 161.696 376.608 161.696C373.307 161.696 370.631 164.372 370.631 167.673C370.631 170.975 373.307 173.651 376.608 173.651Z" fill="#B9D4DB"/>
<path d="M409.7 186.233C417.614 186.233 424.03 179.817 424.03 171.903C424.03 163.989 417.614 157.573 409.7 157.573C401.785 157.573 395.37 163.989 395.37 171.903C395.37 179.817 401.785 186.233 409.7 186.233Z" fill="#B9D4DB"/>
</svg>
